<?xml version="1.0" encoding="UTF-8" standalone="no"?>
<svg
   viewBox="0 0 48 48"
   width="48"
   height="48"
   version="1.1"
   id="svg2"
   sodipodi:docname="info.svg"
   xml:space="preserve"
   inkscape:version="1.3.2 (091e20ef0f, 2023-11-25)"
   xmlns:inkscape="http://www.inkscape.org/namespaces/inkscape"
   xmlns:sodipodi="http://sodipodi.sourceforge.net/DTD/sodipodi-0.dtd"
   xmlns="http://www.w3.org/2000/svg"
   xmlns:svg="http://www.w3.org/2000/svg"><defs
     id="defs2" /><sodipodi:namedview
     id="namedview2"
     pagecolor="#ffffff"
     bordercolor="#666666"
     borderopacity="1.0"
     inkscape:showpageshadow="2"
     inkscape:pageopacity="0.0"
     inkscape:pagecheckerboard="0"
     inkscape:deskcolor="#d1d1d1"
     inkscape:zoom="5.9580471"
     inkscape:cx="-0.75528104"
     inkscape:cy="4.1120857"
     inkscape:window-width="1878"
     inkscape:window-height="966"
     inkscape:window-x="0"
     inkscape:window-y="36"
     inkscape:window-maximized="1"
     inkscape:current-layer="svg2" /><g
     id="g1"
     transform="scale(2)"
     style="stroke-width:0.5"><path
       style="fill:#5777cb;fill-opacity:1;stroke:none;stroke-width:0.5;stroke-opacity:1"
       d="M 12,1 C 18.075,1 23,5.925 23,12 23,18.075 18.075,23 12,23 5.925,23 1,18.075 1,12 1,5.925 5.925,1 12,1 Z"
       id="path3" /><path
       d="m 13,7.5 a 1,1 0 1 1 -2,0 1,1 0 0 1 2,0 z m -3,3.75 a 0.75,0.75 0 0 1 0.75,-0.75 h 1.5 A 0.75,0.75 0 0 1 13,11.25 v 4.25 h 0.75 a 0.75,0.75 0 0 1 0,1.5 h -3 a 0.75,0.75 0 0 1 0,-1.5 H 11.5 V 12 H 10.75 A 0.75,0.75 0 0 1 10,11.25 Z"
       id="path1"
       style="fill:#ffffff;stroke-width:0.5" /></g></svg>
