<?xml version="1.0" encoding="UTF-8" standalone="no"?>
<svg
   viewBox="0 0 48 48"
   width="48"
   height="48"
   version="1.1"
   id="svg2"
   sodipodi:docname="alert.svg"
   xml:space="preserve"
   inkscape:version="1.3.2 (091e20ef0f, 2023-11-25)"
   xmlns:inkscape="http://www.inkscape.org/namespaces/inkscape"
   xmlns:sodipodi="http://sodipodi.sourceforge.net/DTD/sodipodi-0.dtd"
   xmlns="http://www.w3.org/2000/svg"
   xmlns:svg="http://www.w3.org/2000/svg"><defs
     id="defs2" /><sodipodi:namedview
     id="namedview2"
     pagecolor="#ffffff"
     bordercolor="#666666"
     borderopacity="1.0"
     inkscape:showpageshadow="2"
     inkscape:pageopacity="0.0"
     inkscape:pagecheckerboard="0"
     inkscape:deskcolor="#d1d1d1"
     inkscape:zoom="7.8705011"
     inkscape:cx="14.547994"
     inkscape:cy="21.790226"
     inkscape:window-width="1878"
     inkscape:window-height="966"
     inkscape:window-x="0"
     inkscape:window-y="36"
     inkscape:window-maximized="1"
     inkscape:current-layer="svg2" /><g
     id="g1"
     transform="matrix(2,0,0,2,1.3301585e-4,-0.49525)"
     style="stroke-width:0.5"><path
       d="m 13,17.5 a 1,1 0 1 1 -2,0 1,1 0 0 1 2,0 z M 12.75,9.25 a 0.75,0.75 0 0 0 -1.5,0 v 4.5 a 0.75,0.75 0 0 0 1.5,0 z"
       id="path1"
       style="stroke-width:0.5" /><path
       d="m 9.836,3.244 c 0.963,-1.665 3.365,-1.665 4.328,0 l 8.967,15.504 c 0.963,1.667 -0.24,3.752 -2.165,3.752 H 3.034 c -1.926,0 -3.128,-2.085 -2.165,-3.752 z m 3.03,0.751 c -0.386439,-0.6639577 -1.345561,-0.6639577 -1.732,0 L 2.168,19.499 C 1.7850186,20.165878 2.264977,20.997769 3.034,21 h 17.932 c 0.768257,-0.0027 1.247835,-0.833346 0.866,-1.5 L 18.248431,13.302497 12.866,3.994 Z"
       id="path2"
       sodipodi:nodetypes="cccssccccccccccc"
       style="fill:#d34141;fill-opacity:1;stroke-width:0.5" /></g></svg>
