<?xml version="1.0" encoding="UTF-8" standalone="no"?>
<!-- Created with Inkscape (http://www.inkscape.org/) -->

<svg
   xmlns:dc="http://purl.org/dc/elements/1.1/"
   xmlns:cc="http://creativecommons.org/ns#"
   xmlns:rdf="http://www.w3.org/1999/02/22-rdf-syntax-ns#"
   xmlns:svg="http://www.w3.org/2000/svg"
   xmlns="http://www.w3.org/2000/svg"
   xmlns:xlink="http://www.w3.org/1999/xlink"
   xmlns:sodipodi="http://sodipodi.sourceforge.net/DTD/sodipodi-0.dtd"
   xmlns:inkscape="http://www.inkscape.org/namespaces/inkscape"
   width="159.82542"
   height="265.94376"
   id="svg2"
   version="1.1"
   inkscape:version="0.48.4 r9939"
   sodipodi:docname="uniBorg.svg"
   inkscape:export-filename="uniborg.png"
   inkscape:export-xdpi="90"
   inkscape:export-ydpi="90">
  <defs
     id="defs4">
    <inkscape:path-effect
       effect="spiro"
       id="path-effect4672"
       is_visible="true" />
    <inkscape:path-effect
       effect="spiro"
       id="path-effect4343"
       is_visible="true" />
    <inkscape:path-effect
       effect="spiro"
       id="path-effect4339"
       is_visible="true" />
    <inkscape:path-effect
       effect="spiro"
       id="path-effect4296"
       is_visible="true" />
    <linearGradient
       inkscape:collect="always"
       id="linearGradient4119">
      <stop
         style="stop-color:#c8ab37;stop-opacity:1;"
         offset="0"
         id="stop4121" />
      <stop
         style="stop-color:#c8ab37;stop-opacity:0;"
         offset="1"
         id="stop4123" />
    </linearGradient>
    <linearGradient
       id="linearGradient4075">
      <stop
         style="stop-color:#501616;stop-opacity:1;"
         offset="0"
         id="stop4077" />
      <stop
         style="stop-color:#501616;stop-opacity:0;"
         offset="1"
         id="stop4079" />
    </linearGradient>
    <inkscape:path-effect
       effect="spiro"
       id="path-effect3123"
       is_visible="true" />
    <inkscape:path-effect
       effect="spiro"
       id="path-effect3119"
       is_visible="true" />
    <inkscape:path-effect
       effect="spiro"
       id="path-effect3115"
       is_visible="true" />
    <inkscape:path-effect
       effect="spiro"
       id="path-effect3111"
       is_visible="true" />
    <inkscape:path-effect
       effect="spiro"
       id="path-effect3107"
       is_visible="true" />
    <inkscape:path-effect
       effect="spiro"
       id="path-effect3103"
       is_visible="true" />
    <inkscape:path-effect
       effect="spiro"
       id="path-effect3099"
       is_visible="true" />
    <inkscape:path-effect
       effect="spiro"
       id="path-effect3095"
       is_visible="true" />
    <inkscape:path-effect
       effect="spiro"
       id="path-effect3091"
       is_visible="true" />
    <inkscape:path-effect
       effect="spiro"
       id="path-effect3087"
       is_visible="true" />
    <inkscape:path-effect
       effect="spiro"
       id="path-effect3083"
       is_visible="true" />
    <inkscape:path-effect
       effect="spiro"
       id="path-effect3079"
       is_visible="true" />
    <inkscape:path-effect
       effect="spiro"
       id="path-effect3075"
       is_visible="true" />
    <inkscape:path-effect
       effect="spiro"
       id="path-effect3071"
       is_visible="true" />
    <filter
       inkscape:collect="always"
       id="filter4069"
       x="-0.16582996"
       width="1.3316599"
       y="-0.1624108"
       height="1.3248216"
       color-interpolation-filters="sRGB">
      <feGaussianBlur
         inkscape:collect="always"
         stdDeviation="13.26149"
         id="feGaussianBlur4071" />
    </filter>
    <filter
       inkscape:collect="always"
       id="filter4215"
       x="-1.2315582"
       width="3.4631164"
       y="-0.16254067"
       height="1.3250813"
       color-interpolation-filters="sRGB">
      <feGaussianBlur
         inkscape:collect="always"
         stdDeviation="26.954668"
         id="feGaussianBlur4217" />
    </filter>
    <inkscape:path-effect
       effect="spiro"
       id="path-effect3091-5"
       is_visible="true" />
    <filter
       inkscape:collect="always"
       id="filter4586"
       x="-0.74331528"
       width="2.4866304"
       y="-0.1694613"
       height="1.3389226"
       color-interpolation-filters="sRGB">
      <feGaussianBlur
         inkscape:collect="always"
         stdDeviation="21.397723"
         id="feGaussianBlur4588" />
    </filter>
    <filter
       inkscape:collect="always"
       id="filter4646"
       x="-0.2522727"
       width="1.5045455"
       y="-0.16567165"
       height="1.3313433"
       color-interpolation-filters="sRGB">
      <feGaussianBlur
         inkscape:collect="always"
         stdDeviation="18.687819"
         id="feGaussianBlur4648" />
    </filter>
    <inkscape:path-effect
       effect="spiro"
       id="path-effect3123-4"
       is_visible="true" />
    <inkscape:path-effect
       effect="spiro"
       id="path-effect3123-4-9"
       is_visible="true" />
    <inkscape:path-effect
       effect="spiro"
       id="path-effect3123-4-9-4"
       is_visible="true" />
    <filter
       inkscape:collect="always"
       id="filter4764"
       x="-0.59423709"
       width="2.1884742"
       y="-0.13666487"
       height="1.2733297"
       color-interpolation-filters="sRGB">
      <feGaussianBlur
         inkscape:collect="always"
         stdDeviation="26.318185"
         id="feGaussianBlur4766" />
    </filter>
    <filter
       inkscape:collect="always"
       id="filter4831"
       x="-0.099982001"
       width="1.199964"
       y="-0.1117872"
       height="1.2235744"
       color-interpolation-filters="sRGB">
      <feGaussianBlur
         inkscape:collect="always"
         stdDeviation="5.1766929"
         id="feGaussianBlur4833" />
    </filter>
    <inkscape:path-effect
       effect="spiro"
       id="path-effect3119-0"
       is_visible="true" />
    <filter
       inkscape:collect="always"
       id="filter4646-3"
       x="-0.2522727"
       width="1.5045455"
       y="-0.16567165"
       height="1.3313433"
       color-interpolation-filters="sRGB">
      <feGaussianBlur
         inkscape:collect="always"
         stdDeviation="18.687819"
         id="feGaussianBlur4648-6" />
    </filter>
    <inkscape:path-effect
       effect="spiro"
       id="path-effect3119-0-3"
       is_visible="true" />
    <inkscape:path-effect
       effect="spiro"
       id="path-effect3119-0-32"
       is_visible="true" />
    <filter
       inkscape:collect="always"
       id="filter4646-3-3"
       x="-0.2522727"
       width="1.5045455"
       y="-0.16567165"
       height="1.3313433"
       color-interpolation-filters="sRGB">
      <feGaussianBlur
         inkscape:collect="always"
         stdDeviation="18.687819"
         id="feGaussianBlur4648-6-0" />
    </filter>
    <inkscape:path-effect
       effect="spiro"
       id="path-effect3119-0-2"
       is_visible="true" />
    <inkscape:path-effect
       effect="spiro"
       id="path-effect3119-0-8"
       is_visible="true" />
    <filter
       inkscape:collect="always"
       id="filter4972"
       color-interpolation-filters="sRGB">
      <feGaussianBlur
         inkscape:collect="always"
         stdDeviation="16.127085"
         id="feGaussianBlur4974" />
    </filter>
    <inkscape:path-effect
       effect="spiro"
       id="path-effect4343-9"
       is_visible="true" />
    <inkscape:path-effect
       effect="spiro"
       id="path-effect4343-7"
       is_visible="true" />
    <filter
       inkscape:collect="always"
       id="filter5076"
       x="-0.18744813"
       width="1.3748963"
       y="-0.036506392"
       height="1.0730128"
       color-interpolation-filters="sRGB">
      <feGaussianBlur
         inkscape:collect="always"
         stdDeviation="4.9858548"
         id="feGaussianBlur5078" />
    </filter>
    <filter
       inkscape:collect="always"
       id="filter5172"
       color-interpolation-filters="sRGB">
      <feGaussianBlur
         inkscape:collect="always"
         stdDeviation="15.737371"
         id="feGaussianBlur5174" />
    </filter>
    <inkscape:path-effect
       effect="spiro"
       id="path-effect3119-0-2-2"
       is_visible="true" />
    <filter
       color-interpolation-filters="sRGB"
       inkscape:collect="always"
       id="filter4972-6">
      <feGaussianBlur
         inkscape:collect="always"
         stdDeviation="16.127085"
         id="feGaussianBlur4974-8" />
    </filter>
    <inkscape:path-effect
       effect="spiro"
       id="path-effect3107-6"
       is_visible="true" />
    <inkscape:path-effect
       effect="spiro"
       id="path-effect3091-8"
       is_visible="true" />
    <inkscape:path-effect
       effect="spiro"
       id="path-effect3091-0"
       is_visible="true" />
    <linearGradient
       inkscape:collect="always"
       xlink:href="#linearGradient4119"
       id="linearGradient3259"
       gradientUnits="userSpaceOnUse"
       x1="830.51569"
       y1="847.71509"
       x2="1212.0127"
       y2="847.71509" />
  </defs>
  <sodipodi:namedview
     id="base"
     pagecolor="#ffffff"
     bordercolor="#666666"
     borderopacity="1.0"
     inkscape:pageopacity="0.0"
     inkscape:pageshadow="2"
     inkscape:zoom="0.24748737"
     inkscape:cx="357.31475"
     inkscape:cy="-303.16097"
     inkscape:document-units="px"
     inkscape:current-layer="layer1"
     showgrid="false"
     fit-margin-top="0"
     fit-margin-left="0"
     fit-margin-right="0"
     fit-margin-bottom="0"
     inkscape:window-width="1280"
     inkscape:window-height="702"
     inkscape:window-x="0"
     inkscape:window-y="45"
     inkscape:window-maximized="1"
     units="in" />
  <metadata
     id="metadata7">
    <rdf:RDF>
      <cc:Work
         rdf:about="">
        <dc:format>image/svg+xml</dc:format>
        <dc:type
           rdf:resource="http://purl.org/dc/dcmitype/StillImage" />
        <dc:title />
      </cc:Work>
    </rdf:RDF>
  </metadata>
  <g
     inkscape:label="Layer 1"
     inkscape:groupmode="layer"
     id="layer1"
     transform="translate(-71.258,-1169.7442)">
    <g
       id="g3225"
       transform="matrix(0.11013583,0,0,0.11013583,81.125482,1218.0402)">
      <g
         id="g4347">
        <path
           sodipodi:nodetypes="cscscscccsccscccccccccccccscscscc"
           inkscape:connector-curvature="0"
           d="m 692.71429,136.50502 c -3.65627,17.24088 -5.25932,34.91624 -4.76447,52.5336 0.6198,22.06582 4.53918,44.0361 11.58764,64.95508 4.1276,13.9351 10.7618,27.12371 19.48961,38.74479 8.65568,11.52504 19.36564,21.5026 31.47393,29.32159 10.18224,5.29445 21.05787,9.25346 32.26088,11.74378 10.84705,2.4112 21.99935,3.44569 33.10484,3.07083 l 70.0973,-17.19991 49.15136,76.17694 c 8.58892,15.87785 16.21887,32.27437 22.83446,49.07049 5.39898,13.70732 10.12262,27.68061 14.14806,41.85225 0.18786,21.45695 -0.52235,42.92175 -2.12815,64.31935 -0.87168,11.61526 -2.00767,23.22171 -2.21243,34.86783 -0.34069,19.37758 1.91416,38.79917 6.68543,57.58324 l -17.72044,25.67391 -72.94429,52.96704 c -5.57378,6.49976 -10.90466,13.20781 -15.97778,20.10545 -26.48553,36.01091 -45.85073,77.23747 -56.65559,120.61401 -26.92179,-3.24926 -55.08901,5.87354 -74.99401,24.28906 -13.74594,12.71734 -23.37371,29.24351 -31.44007,46.14367 -8.06636,16.90015 -14.79391,34.45787 -23.86256,50.84204 -11.48741,20.75414 -26.68742,39.44624 -44.66314,54.92414 l -105.3149,-89.42041 c -22.46947,-38.2297 -40.80513,-78.8872 -54.58458,-121.03591 -15.538,-47.52778 -25.27514,-96.94897 -28.92672,-146.81866 l 5.62756,-116.59405 26.85336,-120.67267 c 8.09576,-32.86819 18.63308,-65.13472 31.49646,-96.44594 9.70577,-23.62516 20.73467,-46.70668 33.01779,-69.10032 7.23009,-17.28441 15.91348,-33.96062 25.92847,-49.79492 12.81723,-20.2648 27.81803,-39.14752 44.65896,-56.21581 10.71041,-13.19495 23.48386,-24.71194 37.71345,-34.00377 11.73282,-7.66146 24.45081,-13.8124 37.74127,-18.25322 l 2.3183,15.7565"
           id="path3089"
           inkscape:original-d="m 692.71429,136.50502 c -0.15559,16.8452 -3.29956,34.6979 -4.76447,52.5336 -1.83571,22.3504 -1.03474,44.6741 11.58764,64.95508 4.9294,13.61027 11.21481,26.96506 19.48961,38.74479 8.28506,11.79433 18.56445,22.00969 31.47393,29.32159 9.62269,6.59516 20.73665,9.88176 32.26088,11.74378 10.97406,1.77313 22.32016,2.25446 33.10484,3.07083 23.31472,-5.94165 46.6677,-11.72716 70.0973,-17.19991 19.50082,23.38145 35.89612,48.76633 49.15136,76.17694 9.50113,15.46052 16.62662,32.0837 22.83446,49.07049 5.06274,13.85339 9.51515,27.94861 14.14806,41.85225 3.07962,21.57931 2.9174,43.03925 -2.12815,64.31935 -2.81449,11.58281 -3.06577,23.21364 -2.21243,34.86783 1.4035,19.16779 5.7951,38.39878 6.68543,57.58324 6.8483,15.54994 -5.03208,20.83338 -17.72044,25.67391 -27.55491,12.80203 -52.81568,30.07967 -72.94429,52.96704 -31.55985,30.90585 -9.99827,-22.91223 -15.97778,20.10545 -2.18437,13.0313 -38.74225,126.5439 -56.65559,120.61401 -27.056,-2.45835 -52.03488,11.68674 -74.99401,24.28906 -34.63151,20.11205 -48.62752,59.5881 -55.30263,96.98571 -4.2507,27.03614 -44.66314,54.92414 -44.66314,54.92414 -1.5326,-4.7342 -105.3149,-89.42041 -105.3149,-89.42041 0,0 -38.34047,-59.84277 -54.58458,-121.03591 -13.58386,-47.9842 -32.96868,-95.98556 -28.92672,-146.81866 -11.88306,-39.24103 7.20749,-77.02918 5.62756,-116.59405 3.09553,-41.22803 4.89616,-84.29089 26.85336,-120.67267 10.56008,-31.95778 19.72543,-64.78879 31.49646,-96.44594 8.92611,-24.00601 19.35057,-47.33699 33.01779,-69.10032 11.12397,-15.27755 18.22454,-32.75332 25.92847,-49.79492 8.6289,-19.08771 28.01475,-41.91644 44.65896,-56.21581 16.40646,-10.15971 26.51455,-23.37551 37.71345,-34.00377 9.97468,-9.4664 20.81471,-16.88006 37.74127,-18.25322 1.6914,5.19164 -0.94352,10.92985 2.3183,15.7565 z"
           inkscape:path-effect="#path-effect3091"
           style="color:#000000;fill:#cccccc;stroke:#000000;stroke-width:12;stroke-linecap:round;stroke-linejoin:miter;stroke-miterlimit:4;stroke-opacity:1;stroke-dasharray:none;stroke-dashoffset:0;marker:none;visibility:visible;display:inline;overflow:visible;enable-background:accumulate" />
      </g>
      <path
         sodipodi:nodetypes="cccccccccc"
         inkscape:connector-curvature="0"
         d="m 995.99155,991.95142 -2.93547,43.64628 -6.52064,45.3323 9.26537,39.5965 19.41699,27.3857 22.591,26.9892 -5.4183,-3.3263 20.203,21.2132 6.0609,4.0406 2.0203,0"
         id="path3113"
         inkscape:original-d="m 995.99155,991.95142 c -4.4485,14.58578 -5.96597,28.08228 -2.93547,43.64628 -0.1537,16.3239 -6.52064,45.3323 -6.52064,45.3323 0,0 11.82637,24.8705 9.26537,39.5965 5.71309,14.1976 19.41699,27.3857 19.41699,27.3857 0,4.5204 22.591,22.4688 22.591,26.9892 l -5.4183,-3.3263 20.203,21.2132 6.0609,4.0406 2.0203,0"
         inkscape:path-effect="#path-effect3115"
         style="color:#000000;fill:none;stroke:#000000;stroke-width:5.0999999;stroke-linecap:butt;stroke-linejoin:miter;stroke-miterlimit:4;stroke-opacity:1;stroke-dasharray:none;stroke-dashoffset:0;marker:none;visibility:visible;display:inline;overflow:visible;filter:url(#filter4586);enable-background:accumulate" />
      <path
         sodipodi:nodetypes="cccccc"
         inkscape:connector-curvature="0"
         d="m 875.59395,940.56303 c -5.21331,16.63834 -14.41189,32.01313 -26.60813,44.47366 -10.41137,10.63698 -22.98517,19.14841 -36.72896,24.86241 l -38.46548,9.1429 -41.41626,-3.0305 -42.42641,-13.1319"
         id="path3117"
         inkscape:original-d="m 875.59395,940.56303 c -5.20954,11.3025 -20.03502,34.01946 -26.60813,44.47366 -6.39183,9.9597 -29.84857,15.14181 -36.72896,24.86241 -3.27848,7.326 -32.79555,3.9302 -38.46548,9.1429 l -41.41626,-3.0305 -42.42641,-13.1319"
         inkscape:path-effect="#path-effect3119"
         style="color:#000000;fill:none;stroke:#2b1100;stroke-width:4.19999981;stroke-linecap:butt;stroke-linejoin:miter;stroke-miterlimit:4;stroke-opacity:1;stroke-dasharray:none;stroke-dashoffset:0;marker:none;visibility:visible;display:inline;overflow:visible;filter:url(#filter4646);enable-background:accumulate" />
      <path
         sodipodi:nodetypes="cccc"
         inkscape:connector-curvature="0"
         d="m 799.64924,1097.0812 c -2.1327,44.163 -5.65961,88.2587 -10.57371,132.1993 -4.54788,40.6659 -10.28231,81.1889 -15.34188,121.7944 -7.71458,61.9133 -13.86029,124.022 -18.42923,186.2465"
         id="path3121"
         inkscape:original-d="m 799.64924,1097.0812 -10.57371,132.1993 -15.34188,121.7944 -18.42923,186.2465"
         inkscape:path-effect="#path-effect3123"
         style="opacity:0.68867929;color:#000000;fill:none;stroke:#2b1100;stroke-width:7.19999981;stroke-linecap:butt;stroke-linejoin:miter;stroke-miterlimit:4;stroke-opacity:1;stroke-dasharray:none;stroke-dashoffset:0;marker:none;visibility:visible;display:inline;overflow:visible;filter:url(#filter4215);enable-background:accumulate" />
      <g
         id="g4360">
        <path
           sodipodi:type="arc"
           style="opacity:0.91086958;fill:#ff0000;stroke:#000000;stroke-width:11.5;stroke-linecap:round;stroke-miterlimit:4;stroke-opacity:1;stroke-dasharray:none;filter:url(#filter4069)"
           id="path3913"
           sodipodi:cx="861.6601"
           sodipodi:cy="1470.9792"
           sodipodi:rx="95.964493"
           sodipodi:ry="97.984795"
           d="m 957.62459,1470.9792 c 0,54.1156 -42.96477,97.9848 -95.96449,97.9848 -52.99973,0 -95.9645,-43.8692 -95.9645,-97.9848 0,-54.1155 42.96477,-97.9847 95.9645,-97.9847 52.99972,0 95.96449,43.8692 95.96449,97.9847 z"
           transform="translate(-115.14286,-919.63782)" />
        <path
           sodipodi:type="star"
           style="opacity:0.91086958;fill:#ffffff;stroke:none"
           id="path4073"
           sodipodi:sides="5"
           sodipodi:cx="-771.75653"
           sodipodi:cy="1853.827"
           sodipodi:r1="38.332588"
           sodipodi:r2="5.8678675"
           sodipodi:arg1="-0.32175048"
           sodipodi:arg2="-0.26083984"
           inkscape:flatsided="false"
           inkscape:rounded="0"
           inkscape:randomized="0"
           d="m -735.39104,1841.7052 -30.69611,10.6085 17.09671,32.3531 -19.57494,-25.9155 -25.48642,26.2576 18.59813,-26.6252 -32.84819,-16.125 31.06922,9.4602 5.18512,-36.2234 0.60371,32.472 z"
           transform="translate(1522.4878,-1305.8627)"
           inkscape:transform-center-x="9.0128179"
           inkscape:transform-center-y="-2.0365326" />
        <path
           transform="translate(-115.14286,-919.63782)"
           d="m 957.62459,1470.9792 c 0,54.1156 -42.96477,97.9848 -95.96449,97.9848 -52.99973,0 -95.9645,-43.8692 -95.9645,-97.9848 0,-54.1155 42.96477,-97.9847 95.9645,-97.9847 52.99972,0 95.96449,43.8692 95.96449,97.9847 z"
           sodipodi:ry="97.984795"
           sodipodi:rx="95.964493"
           sodipodi:cy="1470.9792"
           sodipodi:cx="861.6601"
           id="path4219"
           style="opacity:0.91086958;fill:none;stroke:#f4d7d7;stroke-width:3.0999999;stroke-linecap:round;stroke-miterlimit:4;stroke-opacity:1;stroke-dasharray:none"
           sodipodi:type="arc" />
      </g>
      <g
         id="g4351">
        <path
           style="color:#000000;fill:none;stroke:#808080;stroke-width:10;stroke-linecap:round;stroke-linejoin:miter;stroke-miterlimit:4;stroke-opacity:1;stroke-dasharray:none;stroke-dashoffset:0;marker:none;visibility:visible;display:inline;overflow:visible;enable-background:accumulate"
           inkscape:path-effect="#path-effect3095"
           inkscape:original-d="m 463.08193,274.43401 -20.59367,-43.17613 -6.34809,-52.18997 c 0,0 -0.72676,-40.38987 3.44028,-55.27937 1.96139,-8.1242 6.63473,-30.696476 5.1589,-39.037672 -1.58127,-13.95446 8.36139,-40.458237 10.50114,-54.182077 3.62177,-20.09012 11.85431,-33.1391924 16.94924,-52.922572 3.46819,-17.96523 23.01163,-33.277378 29.24971,-50.445018 5.81582,-9.18736 14.70556,-10.671681 22.48299,-18.385901 1.07013,-8.11931 9.40671,-18.45569 11.21492,-5.37627 0.41397,12.76926 3.10605,25.72926 10.2555,36.50351 6.88621,13.9002 13.13415,28.10211 20.89286,41.5625 10.32197,29.13472 32.61215,51.39976 49.10121,76.88615 4.43904,9.48705 13.02557,15.83322 17.91759,25.07059 2.77097,4.1971 19.37809,23.2131 22.26692,27.329"
           id="path3093"
           d="m 463.08193,274.43401 -20.59367,-43.17613 -6.34809,-52.18997 c 0.36482,-18.46403 1.51295,-36.91258 3.44028,-55.27937 1.36997,-13.0554 3.13327,-26.067817 5.1589,-39.037672 2.83958,-18.181447 6.19689,-36.290691 10.50114,-54.182077 4.33787,-18.031125 9.65113,-35.8733446 16.94924,-52.922572 7.66768,-17.912591 17.51284,-34.891879 29.24971,-50.445018 l 22.48299,-18.385901 11.21492,-5.37627 10.2555,36.50351 20.89286,41.5625 49.10121,76.88615 17.91759,25.07059 22.26692,27.329"
           inkscape:connector-curvature="0"
           sodipodi:nodetypes="ccccccccccccccc" />
        <path
           style="color:#000000;fill:none;stroke:#808080;stroke-width:8.5;stroke-linecap:round;stroke-linejoin:miter;stroke-miterlimit:4;stroke-opacity:1;stroke-dasharray:none;stroke-dashoffset:0;marker:none;visibility:visible;display:inline;overflow:visible;enable-background:accumulate"
           inkscape:path-effect="#path-effect3071"
           inkscape:original-d="m 939.85714,1122.2194 c 10.6795,49.241 29.3739,121.424 52.4851,166.4842 13.64196,28.7094 18.01466,74.639 25.27046,105.2346 9.705,58.7694 -4.0235,98.6497 -14.0972,156.0635 -11.59188,37.212 -5.30886,80.9876 -31.01946,112.3044 -24.7726,34.4273 -27.6356,78.3628 -48.4997,114.9214 -19.6511,38.5142 -32.5461,82.3779 -66.28206,111.4204 -13.80282,24.9447 -29.79205,52.6641 -60.70377,57.3775 -24.66711,5.1027 -54.86354,26.4954 -76.03275,3.1169 -32.34312,-24.681 -60.48389,-54.6481 -87.78235,-84.5818 -17.39927,-29.6635 -46.19975,-51.0001 -60.62946,-82.3894 -32.72059,-45.2124 -68.94097,-87.0216 -94.58886,-136.817 -29.25273,-53.699 -60.95595,-107.013 -85.97709,-162.4205 -12.38483,-24.7756 -26.74661,-44.6983 -34.28572,-72.8571 -3.52914,-6.5197 -11.31119,-33.4527 -14.87393,-49.2017 -11.72547,-30.0423 -24.44845,-60.0193 -28.27339,-92.4277 -8.54809,-23.9885 -7.93819,-51.8693 -5.33181,-77.3112 7.28261,-37.8852 25.99915,-72.4897 28.46058,-111.4552 8.64412,-29.2215 18.93677,-57.7529 21.92387,-88.41742 2.99487,-24.764 10.44954,-47.65169 18.19621,-72.02369 11.94325,-61.0985 22.82502,-121.94091 32.76696,-183.47471 9.59448,-54.5561 20.5868,-109.697 13.69583,-165.2306"
           id="path3069"
           d="m 939.85714,1122.2194 c 19.87279,54.7075 37.38943,110.2707 52.4851,166.4842 9.35736,34.8451 17.78486,69.94 25.27046,105.2346 l -14.0972,156.0635 -31.01946,112.3044 c -13.56317,39.3376 -29.7786,77.7605 -48.4997,114.9214 -19.459,38.6256 -41.62516,75.887 -66.28206,111.4204 -12.09135,25.8173 -34.24671,46.7587 -60.70377,57.3775 -24.00193,9.6334 -51.32286,10.7534 -76.03275,3.1169 l -87.78235,-84.5818 -60.62946,-82.3894 c -34.40117,-43.5286 -66.01666,-89.2585 -94.58886,-136.817 C 446.41888,1592.8254 418.60775,1538.1352 392,1482.9336 c -11.65434,-24.1786 -23.08357,-48.4657 -34.28572,-72.8571 l -14.87393,-49.2017 -28.27339,-92.4277 -5.33181,-77.3112 28.46058,-111.4552 c 7.2364,-29.4902 14.54438,-58.9627 21.92387,-88.41742 6.01787,-24.01987 12.08329,-48.02783 18.19621,-72.02369 13.95674,-60.56421 24.8971,-121.82343 32.76696,-183.47471 7.00024,-54.83881 11.57149,-109.98763 13.69583,-165.2306"
           inkscape:connector-curvature="0"
           sodipodi:nodetypes="cccccccccccccccccccccc" />
        <path
           sodipodi:nodetypes="cscsccccccccccccc"
           inkscape:connector-curvature="0"
           d="m 682,1017.2193 c 8.51609,7.381 18.27133,13.3287 28.73309,17.5184 9.49294,3.8017 19.5636,6.1571 29.75794,6.9598 12.4487,1.1399 24.93092,1.9136 37.4251,2.3197 13.17073,0.4281 26.35472,0.4478 39.52667,0.059 l 91.89142,48.6511 83.89855,66.9466 97.33863,84.6881 c 28.8028,28.8516 71.0221,43.7153 111.547,39.2711 27.5632,-3.0227 54.1164,-14.6824 74.9941,-32.9305 l 56.533,-64.3712 c 18.7592,-47.3789 26.2175,-99.1889 21.5839,-149.9353 -3.9604,-43.37392 -16.7091,-85.92687 -37.2498,-124.33342 l -70.9478,-67.73344 -117.6179,-139.46144 -74.3782,-91.22012 -41.6072,-76.4286"
           id="path3077"
           inkscape:original-d="m 682,1017.2193 c 17.61097,13.9723 16.58083,10.7929 28.73309,17.5184 3.35856,1.8588 25.28951,2.6268 29.75794,6.9598 12.03417,3.6593 25.2228,7.5321 37.4251,2.3197 16.94102,-7.2365 22.81628,-16.5018 39.52667,0.059 31.01176,17.0182 59.18339,33.5213 91.89142,48.6511 29.67349,20.2394 55.97899,44.4061 83.89855,66.9466 44.61393,16.0278 58.73493,63.8314 97.33863,84.6881 28.9722,26.7959 72.6584,40.4928 111.547,39.2711 28.2908,-2.4287 52.1821,-18.0988 74.9941,-32.9305 19.0739,-21.5172 48.8135,-34.244 56.533,-64.3712 16.5262,-47.9003 22.4428,-99.5951 21.5839,-149.9353 -2.7314,-44.05209 -14.8628,-86.27182 -37.2498,-124.33342 -20.044,-25.23967 -49.5161,-42.64349 -70.9478,-67.73344 -42.5403,-43.50553 -89.6365,-84.30785 -117.6179,-139.46144 -23.0266,-31.47382 -47.369,-62.83071 -74.3782,-91.22012 -17.5383,-23.24272 -31.4202,-49.17224 -41.6072,-76.4286"
           inkscape:path-effect="#path-effect3079"
           style="color:#000000;fill:none;stroke:#808080;stroke-width:10;stroke-linecap:round;stroke-linejoin:miter;stroke-miterlimit:4;stroke-opacity:1;stroke-dasharray:none;stroke-dashoffset:0;marker:none;visibility:visible;display:inline;overflow:visible;enable-background:accumulate" />
        <path
           style="color:#000000;fill:none;stroke:#808080;stroke-width:10;stroke-linecap:round;stroke-linejoin:miter;stroke-miterlimit:4;stroke-opacity:1;stroke-dasharray:none;stroke-dashoffset:0;marker:none;visibility:visible;display:inline;overflow:visible;enable-background:accumulate"
           inkscape:path-effect="#path-effect3087"
           inkscape:original-d="m 1067.7142,620.07648 c 0,-1.307 0,-2.6141 0,-3.9211 -0.7515,-5.3738 0.7162,-10.2237 3.6143,-14.7359 1.5722,-6.8761 0.214,-14.444 0.6715,-21.5833 -0.8606,-8.1576 1.5986,-16.1912 1.1205,-24.2687 -0.1592,-11.1009 -0.5658,-31.55023 -1.0341,-42.60793 -0.3716,-13.5722 -3.8843,-16.06852 -3.9563,-29.63162 -3.3752,-8.0186 -4.7396,-17.61195 -4.7016,-26.10865 -4.7079,-12.4809 -7.8031,-25.4085 -10.4514,-38.4599 -2.6026,-9.6674 -5.3748,-19.3703 -8.991,-28.7174 -5.4557,-8.6899 -13.6373,-15.4332 -19.9015,-23.5952 -5.639,-6.8067 -13.3477,-11.5205 -22.0695,-13.1007 -7.03756,-3.6143 -13.12266,-9.2134 -20.01506,-13.2696 -6.4639,-7.5369 -15.4083,-12.5064 -20.9596,-20.8424 -13.3227,-12.4905 -40.469,-42.72904 -40.469,-42.72904 l -33.15021,-39.9487"
           id="path3085"
           d="m 1067.7142,620.07648 0,-3.9211 3.6143,-14.7359 0.6715,-21.5833 c 0.5489,-8.0802 0.9225,-16.1723 1.1205,-24.2687 0.3475,-14.20954 0.1532,-28.44382 -1.0341,-42.60793 -0.8327,-9.93402 -2.1536,-19.82711 -3.9563,-29.63162 l -4.7016,-26.10865 c -3.2051,-12.89354 -6.69,-25.71753 -10.4514,-38.4599 -2.8399,-9.62071 -5.8375,-19.19488 -8.991,-28.7174 -5.1226,-8.98955 -11.9045,-17.0301 -19.9015,-23.5952 -6.6377,-5.44914 -14.1072,-9.88311 -22.0695,-13.1007 l -20.01506,-13.2696 -20.9596,-20.8424 c -14.84281,-12.86579 -27.92539,-27.61297 -40.469,-42.72904 l -33.15021,-39.9487"
           inkscape:connector-curvature="0"
           sodipodi:nodetypes="cccccccccccccccc" />
        <path
           sodipodi:nodetypes="ccccc"
           style="color:#000000;fill:none;stroke:#808080;stroke-width:10;stroke-linecap:round;stroke-linejoin:miter;stroke-miterlimit:4;stroke-opacity:1;stroke-dasharray:none;stroke-dashoffset:0;marker:none;visibility:visible;display:inline;overflow:visible;enable-background:accumulate"
           inkscape:path-effect="#path-effect3111"
           inkscape:original-d="m 921.9774,131.05665 c 0.89056,9.96307 5.5884,31.71995 5.5884,31.71995 l 2.59229,17.11793 c 0,0 1.03189,11.95748 1.21705,17.76655 0,14.52117 0.71429,69.80738 0.71429,84.32855"
           id="path3109"
           d="m 921.9774,131.05665 c 2.24404,10.50094 3.98059,21.10296 5.5884,31.71995 l 2.59229,17.11793 c 0.46752,5.91773 0.87324,11.84034 1.21705,17.76655 1.62878,28.07479 1.86727,56.2302 0.71429,84.32855"
           inkscape:connector-curvature="0" />
        <path
           style="color:#000000;fill:none;stroke:#808080;stroke-width:10;stroke-linecap:round;stroke-linejoin:miter;stroke-miterlimit:4;stroke-opacity:1;stroke-dasharray:none;stroke-dashoffset:0;marker:none;visibility:visible;display:inline;overflow:visible;enable-background:accumulate"
           inkscape:path-effect="#path-effect4343"
           inkscape:original-d="m 528.98784,-91.085867 c -3.50867,19.299367 -18.77874,89.2321787 -23.33859,108.227875 -4.13571,26.782953 -3.82709,41.360519 -1.4478,89.858592 0.23126,21.85701 -1.27989,29.41484 6.09038,49.88544 7.98931,21.93029 4.99162,16.04368 -5.42134,35.93183 -0.6,1.32001 -1.19999,2.64001 -1.79999,3.96001"
           id="path4341"
           d="M 528.98784,-91.085867 505.64925,17.142008 c -3.87219,29.770092 -4.35892,59.979207 -1.4478,89.858592 1.6245,16.6737 4.30084,33.22865 6.09038,49.88544 0.65801,6.12469 1.11881,12.32651 0.26721,18.42729 -0.85159,6.10078 -3.13957,11.89674 -5.68855,17.50454 l -1.79999,3.96001"
           inkscape:connector-curvature="0"
           sodipodi:nodetypes="cccccc" />
      </g>
      <path
         inkscape:connector-curvature="0"
         id="path4274"
         d="m 524.334,209.74448 c -2.52081,6.54724 -5.82176,13.42203 -12.24265,16.94642 -8.03016,5.77344 -17.24747,9.515 -25.87198,14.26248 -2.74366,0.53012 -5.96754,2.63807 -1.73677,0.19958 6.88015,-3.78987 14.3446,-6.42451 21.95477,-8.30888 1.59513,-1.74943 -2.55149,-8.57376 1.22369,-4.07565 3.11961,6.79234 -0.79183,13.99686 -3.16776,20.36303 -5.25966,10.49848 -14.22372,18.52898 -22.95546,26.10757 -9.65548,7.18925 -19.26491,14.76911 -30.266,19.80729 -6.8564,2.64561 -13.64451,5.44189 -20.2037,8.75966 -4.75156,2.01181 -9.74676,3.40591 -14.80756,4.3839 7.92977,-5.9804 15.85955,-11.9608 23.78932,-17.9412 11.10853,-2.75204 21.24819,-8.20911 31.57699,-12.9663 -8.9347,5.08912 -17.84001,10.22955 -26.75693,15.3497 7.06532,-4.51118 13.81463,-9.5205 19.51642,-15.70294 7.60901,-6.98632 14.45578,-15.33502 16.97608,-25.56663 2.69304,-4.77329 -1.23412,-7.55068 -2.64374,-11.60668 3.54632,-3.80406 9.51912,-6.04019 14.01298,-9.28243 5.40243,-3.12904 11.02349,-5.8986 16.8694,-8.09972 -8.07139,4.6746 -16.15473,9.3286 -24.21418,14.0238 6.60711,-2.17378 9.69923,-8.96232 12.51912,-14.74639 8.85074,-3.87645 17.60978,-7.95747 26.42796,-11.90661 z"
         style="opacity:0.63913042;color:#000000;fill:#803300;fill-opacity:1;fill-rule:nonzero;stroke:#803300;stroke-width:3.0999999;stroke-linecap:round;stroke-linejoin:miter;stroke-miterlimit:4;stroke-opacity:1;stroke-dasharray:none;stroke-dashoffset:0;marker:none;visibility:visible;display:inline;overflow:visible;enable-background:accumulate" />
      <path
         sodipodi:nodetypes="ccc"
         inkscape:connector-curvature="0"
         d="M 632.6138,1525.3647 528.56808,1245.8233 452.03441,923.18558 441.94521,859.83611 c -0.1425,-10.48781 -0.61902,-20.97108 -1.42857,-31.42857 -0.70227,-9.07162 -1.65514,-18.12384 -2.85715,-27.14286 l 0,-31.42857 -2.85714,-27.14286"
         id="path3121-4"
         inkscape:original-d="m 632.6138,1525.3647 c 2.0203,2.2887 -104.04572,-279.5414 -104.04572,-279.5414 l -76.53367,-322.63772 -10.0892,-63.34947 -1.42857,-31.42857 -2.85715,-27.14286 0,-31.42857 -2.85714,-27.14286"
         inkscape:path-effect="#path-effect3123-4"
         style="opacity:0.62735847;color:#000000;fill:none;stroke:#2b1100;stroke-width:7.19999981;stroke-linecap:butt;stroke-linejoin:miter;stroke-miterlimit:4;stroke-opacity:1;stroke-dasharray:none;stroke-dashoffset:0;marker:none;visibility:visible;display:inline;overflow:visible;filter:url(#filter4764);enable-background:accumulate" />
      <path
         sodipodi:nodetypes="ccccccc"
         inkscape:connector-curvature="0"
         id="path4770"
         d="m 1203.2512,1031.0755 -48.4718,20.2155 87.5962,42.9949 -14.8808,47.9299 51.5476,-44.9705 -33.3366,-30.7941 z"
         style="opacity:0.68867929;color:#000000;fill:#333333;stroke:#000000;stroke-width:1px;stroke-linecap:butt;stroke-linejoin:miter;stroke-miterlimit:4;stroke-opacity:1;stroke-dasharray:none;stroke-dashoffset:0;marker:none;visibility:visible;display:inline;overflow:visible;filter:url(#filter4831);enable-background:accumulate" />
      <path
         sodipodi:nodetypes="cccc"
         inkscape:connector-curvature="0"
         d="m 861.63737,762.82305 58.14473,52.31593 57.6762,46.0176 56.7033,32.57293"
         id="path3117-4"
         inkscape:original-d="m 861.63737,762.82305 c -9.111,29.09071 58.14473,52.31593 58.14473,52.31593 l 57.6762,46.0176 56.7033,32.57293"
         inkscape:path-effect="#path-effect3119-0"
         style="color:#000000;fill:none;stroke:#2b1100;stroke-width:4.19999981;stroke-linecap:butt;stroke-linejoin:miter;stroke-miterlimit:4;stroke-opacity:1;stroke-dasharray:none;stroke-dashoffset:0;marker:none;visibility:visible;display:inline;overflow:visible;filter:url(#filter4646-3);enable-background:accumulate" />
      <path
         sodipodi:nodetypes="cccc"
         inkscape:connector-curvature="0"
         d="m 817.99952,1014.1216 41.98229,40.1941 57.6762,46.0176 56.7033,32.5729"
         id="path3117-4-3"
         inkscape:original-d="m 817.99952,1014.1216 c -9.111,29.0907 41.98229,40.1941 41.98229,40.1941 l 57.6762,46.0176 56.7033,32.5729"
         inkscape:path-effect="#path-effect3119-0-32"
         style="color:#000000;fill:none;stroke:#2b1100;stroke-width:4.19999981;stroke-linecap:butt;stroke-linejoin:miter;stroke-miterlimit:4;stroke-opacity:1;stroke-dasharray:none;stroke-dashoffset:0;marker:none;visibility:visible;display:inline;overflow:visible;filter:url(#filter4646-3-3);enable-background:accumulate" />
      <path
         sodipodi:nodetypes="ccccccccccccccccccccc"
         inkscape:connector-curvature="0"
         d="m 1298.2211,907.84889 -20.203,-20.20305 -36.3655,-30.30458 c -8.7152,-8.794 -17.47,-17.54877 -26.264,-26.26396 -17.5576,-17.40019 -35.2715,-34.64261 -53.1389,-51.72447 l -62.7642,-101.2633 -57.6762,-46.0176 -48.04324,-104.84386 -0.611,-27.48081 30.30454,24.24367 14.1422,24.24365 18.1827,44.9159 c -2.6174,-27.20716 -4.7199,-54.46386 -6.306,-81.75057 -0.6332,-10.89314 -1.1841,-21.79107 -1.6526,-32.69253 -2.5786,-10.53584 -5.3136,-21.0334 -8.2038,-31.48805 -3.1799,-11.50237 -6.5476,-22.9528 -10.1015,-34.34518 -5.9426,-8.16905 -12.0044,-16.25142 -18.1828,-24.24367 -11.70921,-15.14687 -23.83722,-29.96998 -36.36549,-44.44671 l -24.24366,-8.08122 -26.26396,-24.24366 -30.30458,-40.4061"
         id="path3117-4-9"
         inkscape:original-d="m 1298.2211,907.84889 -20.203,-20.20305 -36.3655,-30.30458 -26.264,-26.26396 -53.1389,-51.72447 -62.7642,-101.2633 -57.6762,-46.0176 c 0,0 -57.15424,-75.75315 -48.04324,-104.84386 l -0.611,-27.48081 30.30454,24.24367 14.1422,24.24365 18.1827,44.9159 -6.306,-81.75057 -1.6526,-32.69253 -8.2038,-31.48805 -10.1015,-34.34518 -18.1828,-24.24367 -36.36549,-44.44671 -24.24366,-8.08122 -26.26396,-24.24366 -30.30458,-40.4061"
         inkscape:path-effect="#path-effect3119-0-2"
         style="color:#000000;fill:none;stroke:#2b1100;stroke-width:4.19999981;stroke-linecap:butt;stroke-linejoin:miter;stroke-miterlimit:4;stroke-opacity:1;stroke-dasharray:none;stroke-dashoffset:0;marker:none;visibility:visible;display:inline;overflow:visible;filter:url(#filter4972);enable-background:accumulate" />
      <path
         sodipodi:nodetypes="cccc"
         inkscape:connector-curvature="0"
         d="m 428.08064,648.44637 -24.68778,230.10278 c -7.71746,28.80644 -15.42946,57.61434 -23.136,86.4237 -20.19564,75.49735 -40.35377,151.00475 -60.4744,226.52215 l 12.73284,67.887 c 6.07494,21.546 12.13585,43.0959 18.18274,64.6497 4.7226,16.8335 9.43665,33.6694 14.14214,50.5077 l 32.32488,72.731 c 12.6949,23.6245 25.49032,47.195 38.3858,70.7106 16.66903,30.3969 33.50524,60.7021 50.50762,90.9138 l 28.28427,64.6497 c 23.54566,30.9967 47.1159,61.9748 70.71068,92.9341 19.51283,25.6033 39.04246,51.1938 58.58885,76.7715 11.87251,12.3678 23.99771,24.493 36.36549,36.3655 15.1323,14.5263 30.62776,28.6744 46.46702,42.4264 l 50.50763,14.1422 28.28427,-12.1218 28.28427,-44.4468 24.24366,-24.2436 c 12.73542,-23.2479 24.86278,-46.8289 36.36549,-70.7107 7.7156,-16.0191 15.15052,-32.1742 22.22336,-48.4873 11.79269,-27.1991 22.57751,-54.8352 32.32488,-82.8325 l 20.20305,-52.528 14.14213,-56.5685 c 2.60579,-20.8877 5.29957,-41.7645 8.08123,-62.6295 1.97597,-14.8216 3.99628,-29.6372 6.06091,-44.4467 l 2.02031,-38.3858 -8.08122,-42.4264 -22.22336,-76.7716 -16.16244,-44.4467 -10.10153,-36.3655 -14.14213,-36.3655 -4.04061,-24.2436"
         id="path3117-4-6"
         inkscape:original-d="m 428.08064,648.44637 c -9.111,29.09071 -24.68778,230.10278 -24.68778,230.10278 l -23.136,86.4237 -60.4744,226.52215 12.73284,67.887 18.18274,64.6497 14.14214,50.5077 32.32488,72.731 38.3858,70.7106 50.50762,90.9138 28.28427,64.6497 70.71068,92.9341 58.58885,76.7715 36.36549,36.3655 46.46702,42.4264 50.50763,14.1422 28.28427,-12.1218 28.28427,-44.4468 24.24366,-24.2436 36.36549,-70.7107 22.22336,-48.4873 32.32488,-82.8325 c 0,0 22.22335,-36.3655 20.20305,-52.528 l 14.14213,-56.5685 8.08123,-62.6295 6.06091,-44.4467 2.02031,-38.3858 -8.08122,-42.4264 -22.22336,-76.7716 -16.16244,-44.4467 -10.10153,-36.3655 -14.14213,-36.3655 -4.04061,-24.2436"
         inkscape:path-effect="#path-effect3119-0-8"
         style="color:#000000;fill:none;stroke:#2b1100;stroke-width:4.19999981;stroke-linecap:butt;stroke-linejoin:miter;stroke-miterlimit:4;stroke-opacity:1;stroke-dasharray:none;stroke-dashoffset:0;marker:none;visibility:visible;display:inline;overflow:visible;filter:url(#filter5172);enable-background:accumulate" />
      <path
         style="color:#000000;fill:#4d4d4d;stroke:#808080;stroke-width:2.0999999;stroke-linecap:round;stroke-linejoin:miter;stroke-miterlimit:4;stroke-opacity:1;stroke-dasharray:none;stroke-dashoffset:0;marker:none;visibility:visible;display:inline;overflow:visible;filter:url(#filter5076);enable-background:accumulate"
         inkscape:path-effect="#path-effect4343-7"
         inkscape:original-d="m 498.72393,199.21202 -19.73651,14.66208 -18.18275,25.2538 18.18275,-47.47716 6.06092,-25.25381 -2.02032,-29.29443 -4.04061,-15.15229 1.01016,-20.20305 -1.01016,-26.263966 c 0,0 0,-10.101526 0,-14.142136 0,-4.04061 0,-22.223356 1.01016,-28.284271 1.01015,-6.060915 8.08122,-24.2436607 8.08122,-24.2436607 0,0 7.07107,-24.2436613 8.08122,-29.2944243 1.01015,-5.050763 7.07107,-22.223356 7.07107,-22.223356 l 5.05076,-24.243659 8.08122,-12.12183 8.27821,-9.58159 c -3.50867,19.29937 -18.77874,89.23218127 -23.33859,108.227871 -4.13571,26.78296 -3.82709,41.36052 -1.4478,89.858602 0.23126,21.85701 -1.27989,29.41484 6.09038,49.88544 7.98931,21.93029 4.99162,16.04368 -5.42134,35.93183 -0.6,1.32001 -1.19999,2.64001 -1.79999,3.96001"
         id="path4341-2"
         d="m 498.72393,199.21202 -19.73651,14.66208 -18.18275,25.2538 18.18275,-47.47716 6.06092,-25.25381 -2.02032,-29.29443 -4.04061,-15.15229 1.01016,-20.20305 c -0.55547,-8.744416 -0.89233,-17.502718 -1.01016,-26.263966 -0.0634,-4.713761 -0.0634,-9.428375 0,-14.142136 0.12693,-9.437819 -0.19772,-18.923204 1.01016,-28.284271 1.09693,-8.501227 3.85803,-16.784519 8.08122,-24.2436607 2.47847,-9.8224985 5.17308,-19.5904583 8.08122,-29.2944243 2.23173,-7.446877 4.5892,-14.856071 7.07107,-22.223356 l 5.05076,-24.243659 8.08122,-12.12183 8.27821,-9.58159 -23.33859,108.227871 c -3.87219,29.770096 -4.35892,59.979214 -1.4478,89.858602 1.6245,16.6737 4.30084,33.22865 6.09038,49.88544 0.65801,6.12469 1.11881,12.32651 0.26721,18.42729 -0.85159,6.10078 -3.13957,11.89674 -5.68855,17.50454 l -1.79999,3.96001"
         inkscape:connector-curvature="0"
         sodipodi:nodetypes="cccccccccsscsccccccccc" />
      <path
         sodipodi:nodetypes="cccc"
         inkscape:connector-curvature="0"
         d="M 651.10414,125.81029 592.73213,56.219629 559.70022,3.8828466 521.32885,-67.728666"
         id="path3117-4-9-9"
         inkscape:original-d="M 651.10414,125.81029 592.73213,56.219629 559.70022,3.8828466 521.32885,-67.728666"
         inkscape:path-effect="#path-effect3119-0-2-2"
         style="color:#000000;fill:none;stroke:#2b1100;stroke-width:4.19999981;stroke-linecap:butt;stroke-linejoin:miter;stroke-miterlimit:4;stroke-opacity:1;stroke-dasharray:none;stroke-dashoffset:0;marker:none;visibility:visible;display:inline;overflow:visible;filter:url(#filter4972-6);enable-background:accumulate" />
      <g
         transform="matrix(0.26611464,0,0,0.353172,626.14385,-24.020229)"
         id="g5465">
        <path
           sodipodi:nodetypes="cccccccccc"
           inkscape:connector-curvature="0"
           d="m 822.15615,-5.2105856 c -0.4816,-21.3373054 -1.54701,-42.6614314 -3.19466,-63.9404774 -0.61329,-7.920495 -1.30735,-15.836736 -1.68276,-23.772064 -0.42049,-8.888263 -0.44175,-17.806743 -1.42857,-26.650063 -0.44109,-3.95275 -1.07467,-7.88401 -1.89775,-11.7752 l 19.55655,18.4605 12.39934,16.056674 5.60438,10.255636 3.09093,7.326806 5.71428,13.877188"
           id="path3105"
           inkscape:original-d="m 822.15615,-5.2105856 c -0.18422,-14.6444254 -2.46317,-49.3109794 -3.19466,-63.9404774 -1.02875,-9.080317 -1.99179,-14.620794 -1.68276,-23.772064 0,-7.216693 -1.42857,-26.650063 -1.42857,-26.650063 0,0 -0.55088,-9.75489 -1.89775,-11.7752 4.08257,4.29166 19.82133,18.72401 19.55655,18.4605 0,0 10.11376,11.42981 12.39934,16.056674 5.05915,5.54124 0.8346,4.518778 5.60438,10.255636 1.54338,2.182109 3.64963,4.422401 3.09093,7.326806 0,1.768588 41.42856,-2.177106 5.71428,13.877188"
           inkscape:path-effect="#path-effect3107"
           style="color:#000000;fill:none;stroke:#808080;stroke-width:10;stroke-linecap:round;stroke-linejoin:bevel;stroke-miterlimit:4;stroke-opacity:1;stroke-dasharray:none;stroke-dashoffset:0;marker:none;visibility:visible;display:inline;overflow:visible;enable-background:accumulate" />
        <path
           sodipodi:nodetypes="cccccccccc"
           inkscape:connector-curvature="0"
           d="m 823.39478,-3.5235637 c -0.74255,-21.3279663 -1.8076,-42.6447053 -3.19466,-63.9404703 -0.51632,-7.927097 -1.07725,-15.851289 -1.68276,-23.772072 l -1.42857,-26.650064 c -0.21354,-3.98361 -0.64577,-7.98742 -1.89775,-11.7752 l 19.55655,18.4605 12.39934,16.056674 5.60438,10.255642 c 1.03758,2.439195 2.06789,4.881479 3.09093,7.32681 1.93073,4.614975 3.83553,9.240799 5.71428,13.87718"
           id="path3105-5"
           inkscape:original-d="m 823.39478,-3.5235637 c -0.18422,-14.6444203 -2.46317,-49.3109803 -3.19466,-63.9404703 -1.02875,-9.08032 -1.99179,-14.6208 -1.68276,-23.772072 l -1.42857,-26.650064 c 0,0 -0.55088,-9.75489 -1.89775,-11.7752 4.08257,4.29166 15.78072,13.92579 19.55655,18.4605 2.47527,4.46176 10.11376,11.429814 12.39934,16.056674 5.05915,5.541242 5.63282,10.579697 5.60438,10.255642 l 3.09093,7.32681 5.71428,13.87718"
           inkscape:path-effect="#path-effect3107-6"
           style="color:#000000;fill:#cccccc;fill-opacity:1;stroke:#808080;stroke-width:0;stroke-linecap:round;stroke-linejoin:bevel;stroke-miterlimit:4;stroke-opacity:1;stroke-dasharray:none;stroke-dashoffset:0;marker:none;visibility:visible;display:inline;overflow:visible;enable-background:accumulate" />
      </g>
      <path
         sodipodi:nodetypes="cccccccccc"
         transform="translate(-93.769078,-439.44793)"
         inkscape:connector-curvature="0"
         id="path5254"
         d="m 1015.9594,569.02406 6.8977,53.11712 1.4286,45.71429 0,37.14285 -1.6885,13.69398 -25.45434,-29.40826 -15.71429,-12.85714 -4.28571,-7.14286 L 1010,576.4269 z"
         style="color:#000000;fill:#cccccc;stroke:none;stroke-width:1px;marker:none;visibility:visible;display:inline;overflow:visible;enable-background:accumulate" />
      <path
         transform="translate(-115.14286,-919.63782)"
         sodipodi:nodetypes="cccccccccccscssccccc"
         inkscape:connector-curvature="0"
         inkscape:original-d="m 846.50783,1065.9081 363.65487,-583.86821 -4.0406,72.73098 -12.1218,58.58885 -210.11172,575.78698 -14.61132,12.8361 -17.22335,8.7955 -20.54969,4.0406 -20.12165,0.8687 -15.25471,-2.0522 -15.15229,-6.6526 c 0,0 -10.22408,-5.7143 -16.28499,-13.7955 -6.06092,-8.0812 -8.08122,-10.1015 -8.08122,-10.1015 0,0 -6.06092,-4.0407 -10.10153,-12.1219 -4.04061,-8.0812 -8.08122,-16.1624 -10.10152,-24.2436 -2.02031,-8.0813 -4.04061,-28.2843 -4.04061,-28.2843 l 0,-16.1624 2.48948,-15.5708 6.30603,-12.9586 z"
         inkscape:path-effect="#path-effect3103"
         id="path3101"
         d="M 846.50783,1065.9081 C 975.66492,876.38237 1097.02,681.53999 1210.1627,482.03989 l -4.0406,72.73098 -12.1218,58.58885 -210.11172,575.78698 -14.61132,12.8361 -17.22335,8.7955 -20.54969,4.0406 -20.12165,0.8687 -15.25471,-2.0522 -15.15229,-6.6526 c -5.95564,-3.9228 -11.43646,-8.5658 -16.28499,-13.7955 -2.93427,-3.165 -5.63755,-6.5441 -8.08122,-10.1015 -3.85676,-3.5966 -7.25936,-7.6798 -10.10153,-12.1219 -4.73785,-7.4049 -7.88085,-15.7378 -10.10152,-24.2436 -2.41098,-9.2348 -3.76942,-18.7439 -4.04061,-28.2843 l 0,-16.1624 2.48948,-15.5708 6.30603,-12.9586 c 1.78369,-2.611 3.5659,-5.2231 5.34662,-7.8361"
         style="color:#000000;fill:url(#linearGradient3259);fill-opacity:1;stroke:#803300;stroke-width:3.70000005;stroke-linecap:butt;stroke-linejoin:miter;stroke-miterlimit:4;stroke-opacity:1;stroke-dasharray:none;stroke-dashoffset:0;marker:none;visibility:visible;display:inline;overflow:visible;enable-background:accumulate" />
      <path
         inkscape:connector-curvature="0"
         id="path5435"
         d="m 351.84125,326.85031 c -15.86358,16.49314 -58.10902,12.12032 -24.00808,-7.92107 57.31205,-24.27608 -12.70336,43.82897 -32.43046,54.10604 -36.29648,28.02873 -76.13484,51.36128 -117.965,70.10241 -3.82149,-41.98691 78.25452,-48.54047 96.36238,-11.3805 37.70566,54.78502 -31.86484,99.66488 -69.23674,129.48244 -67.5607,46.32967 -147.534107,69.1823 -224.725573,93.22052 -33.334153,-3.56943 31.835248,-41.73316 47.446007,-43.75204 45.059473,-11.96812 92.617076,1.02816 136.039836,13.74867 42.63974,14.73859 32.29165,70.07077 -1.19162,88.77584 -8.04628,9.27327 -70.529642,43.0494 -38.69767,31.67992 -22.39,31.6525 -63.198723,37.42996 -93.766942,57.30712 21.608225,-23.09309 81.813742,-43.63845 51.561247,9.34335 C 49.446637,883.40515 -9.0112037,947.19728 -85.236803,971.39037 -45.018811,920.61318 5.0385585,867.4816 5.2983067,798.51767 22.661943,748.39253 86.528775,744.7915 123.40295,721.71389 102.27329,733.8003 62.442323,767.92409 104.53432,736.27215 143.97625,709.7286 83.45013,758.04943 98.538275,716.12918 97.727962,658.0931 13.80399,686.94892 -23.586239,673.0091 -88.978064,641.21914 -2.4727103,592.75425 36.723066,592.26075 99.11604,573.71023 161.00803,553.22388 221.23828,528.46552 c -18.41436,14.17406 -63.14627,45.98716 -30.13731,7.75531 33.43187,-54.57151 -95.974067,-69.87145 -38.919,-122.17388 34.10066,-27.40583 94.03403,-39.64736 127.57814,-48.04323 -49.47156,26.20429 3.29334,-49.04358 22.90801,-56.64273 30.62932,-8.00084 80.2359,-52.48364 101.38521,-28.77267 -16.46305,16.39717 -36.94059,28.53765 -52.21208,46.26199 z"
         style="opacity:0.63913042;color:#000000;fill:#803300;fill-opacity:1;fill-rule:nonzero;stroke:#803300;stroke-width:3.0999999;stroke-linecap:round;stroke-linejoin:miter;stroke-miterlimit:4;stroke-opacity:1;stroke-dasharray:none;stroke-dashoffset:0;marker:none;visibility:visible;display:inline;overflow:visible;enable-background:accumulate" />
      <path
         sodipodi:nodetypes="ccccccccccccccccc"
         inkscape:connector-curvature="0"
         id="path5522"
         d="m 670.1424,151.70895 c -48.83099,41.36847 -80.61672,94.11235 -80.61672,94.11235 l -57.42101,111.22751 c 0,0 -34.26788,109.62149 -42.77396,153.06443 -6.76107,45.06523 -13.15244,121.58461 -13.15244,121.58461 l 12.71385,133.28313 62.30933,168.04214 87.58381,70.02508 c 0,0 33.18835,-78.91812 56.87975,-108.34363 26.11287,-39.87154 55.20529,-50.87536 100.01428,-58.46202 16.21683,-29.10265 23.96117,-72.94276 46.62468,-100.73751 26.03603,-43.71981 63.07523,-77.22661 109.47236,-97.42109 -7.53382,-43.40858 -7.99312,-77.444 0.74345,-120.61531 -3.15756,-57.58393 -79.03505,-171.47155 -79.03505,-171.47155 0,0 -66.26505,28.77939 -99.67633,14.0545 -54.55549,-3.63031 -86.22785,-54.80656 -102.39627,-104.39866 -8.8351,-33.0096 -5.09716,-68.57437 -1.26973,-103.94398 z"
         style="color:#000000;fill:none;stroke:#000000;stroke-width:6;stroke-linecap:round;stroke-linejoin:miter;stroke-miterlimit:4;stroke-opacity:1;stroke-dasharray:none;stroke-dashoffset:0;marker:none;visibility:visible;display:inline;overflow:visible;enable-background:accumulate" />
    </g>
  </g>
</svg>
